<svg width="156" height="648" viewBox="0 0 156 648" fill="none" xmlns="http://www.w3.org/2000/svg">
<path fill-rule="evenodd" clip-rule="evenodd" d="M-257.317 567.322C-295.865 542.455 -333.104 518.123 -364.176 484.377C-396.888 448.849 -426.605 411.174 -442.939 365.726C-461.466 314.174 -479.973 258.121 -464.363 205.613C-448.48 152.186 -401.622 115.027 -358.07 80.2443C-314.724 45.6267 -267.703 13.5415 -212.923 4.80163C-158.11 -3.94358 -94.9259 -3.1313 -51.4023 31.3169C-8.2684 65.4566 -24.3265 138.551 10.1854 181.388C44.5737 224.071 119.572 223.633 143.334 273.027C167.165 322.564 153.107 383.955 132.063 434.739C111.253 484.954 67.3012 519.477 26.3791 555.254C-15.9315 592.245 -55.1523 645.116 -111.302 647.504C-167.741 649.905 -209.847 597.944 -257.317 567.322Z" fill="#D98400"/>
</svg>
