<svg width="146" height="373" viewBox="0 0 146 373" fill="none" xmlns="http://www.w3.org/2000/svg">
<path fill-rule="evenodd" clip-rule="evenodd" d="M254.715 354.39C218.46 361.348 182.116 379.996 146.787 369.458C109.898 358.456 85.4837 326.155 62.0498 296.927C35.7095 264.073 -7.63884 229.353 2.2819 189.221C12.8405 146.508 74.9616 138.485 108.633 108.485C131.808 87.8361 143.06 57.7661 169.156 40.5404C196.99 22.1674 229.135 11.8912 262.636 6.82921C301.03 1.02801 341.398 -5.18186 377.303 9.09015C415.105 24.1162 446.192 53.2193 465.595 87.503C484.929 121.666 484.569 161.495 485.48 200.233C486.426 240.454 501.762 290.426 471.017 318.033C438.012 347.669 382.614 325.27 337.852 332.794C309.065 337.633 283.369 348.892 254.715 354.39Z" fill="#D98400"/>
</svg>
